<svg width="56" height="52" viewBox="0 0 56 52" fill="none" xmlns="http://www.w3.org/2000/svg">
    <path fill-rule="evenodd" clip-rule="evenodd" d="M33.6213 42.6929C33.1134 42.6929 32.415 42.7937 32.2267 42.8222L32.1168 42.8415L32.1065 42.8436C31.38 42.9894 30.6968 43.2386 30.0685 43.571V6.09223C30.0685 4.71673 31.203 3.58703 32.6081 3.58703H49.8325C51.2381 3.58703 52.3722 4.71668 52.3722 6.09223V40.1872C52.3722 41.5633 51.238 42.6929 49.8325 42.6929H33.6213ZM24.0881 42.9424L23.9781 42.9231L23.9658 42.9211C23.7755 42.8926 23.0709 42.7917 22.56 42.7917H6.19602C4.77191 42.7917 3.62777 41.6554 3.62777 40.2785V6.09963C3.62777 4.72329 4.77185 3.58703 6.19602 3.58703H23.5827C25.0074 3.58703 26.151 4.72324 26.151 6.09963V43.6753C25.5151 43.3403 24.8234 43.089 24.0881 42.9424ZM28 51.4259H28.5C28.5 49.1674 30.1317 47.2721 32.3165 46.83L32.333 46.8276C32.3517 46.8249 32.3792 46.8209 32.4134 46.8162C32.482 46.8067 32.577 46.7941 32.6827 46.7815C32.902 46.7554 33.1399 46.7328 33.2884 46.7328H50.2115C53.3998 46.7328 55.9999 44.1926 55.9999 41.0397V5.69306C55.9999 2.54022 53.3998 0 50.2115 0H33.2884C31.7645 0 30.3287 0.334144 29.2592 1.09416C28.731 1.46955 28.302 1.9424 28 2.51096C27.6979 1.9424 27.2689 1.46955 26.7407 1.09416C25.6713 0.334144 24.2354 0 22.7115 0H5.78845C2.60012 0 0 2.54022 0 5.69306V41.0397C0 44.1926 2.60012 46.7328 5.78845 46.7328H22.7115C22.8595 46.7328 23.0974 46.7554 23.3169 46.7815C23.4226 46.7941 23.5177 46.8067 23.5864 46.8162C23.6207 46.8209 23.6482 46.8249 23.667 46.8276L23.6835 46.83C25.8683 47.2722 27.5 49.1674 27.5 51.4259H28Z" fill="#4E8396"/>
</svg>